<svg width="997" height="285" viewBox="0 0 997 285" fill="none" xmlns="http://www.w3.org/2000/svg">
<path d="M175.8 191.8C168.312 197.56 157.896 200.44 144.552 200.44C130.92 200.44 119.88 195.928 111.432 186.904C102.984 177.784 98.76 166.408 98.76 152.776C98.76 144.136 100.584 136.12 104.232 128.728C107.88 121.24 113.016 115.24 119.64 110.728C126.264 106.216 134.136 103.96 143.256 103.96C151.032 103.96 157.512 104.968 162.696 106.984C167.976 109 172.536 111.64 176.376 114.904L178.968 132.904L169.896 133.768L167.304 120.088C164.232 118.072 160.92 116.488 157.368 115.336C153.816 114.088 149.4 113.464 144.12 113.464C133.848 113.464 125.544 117.112 119.208 124.408C112.968 131.704 109.848 141.016 109.848 152.344C109.848 163.96 113.064 173.32 119.496 180.424C126.024 187.432 134.856 190.936 145.992 190.936C154.152 190.936 161.016 189.544 166.584 186.76L169.32 172.936L178.248 173.8L175.8 191.8ZM226.99 133.768C231.598 133.768 235.246 134.872 237.934 137.08L240.382 153.208L232.174 154.216L229.726 143.272C228.094 142.696 226.462 142.408 224.83 142.408C221.086 142.408 217.966 143.992 215.47 147.16C212.974 150.232 211.726 154.264 211.726 159.256V190.792H226.558V199H190.414V190.792H201.646V143.128H190.126V134.92H211.15V146.44C212.398 142.888 214.414 139.912 217.198 137.512C220.078 135.016 223.342 133.768 226.99 133.768ZM315.107 166.888C315.107 176.584 312.227 184.6 306.467 190.936C300.707 197.272 292.883 200.44 282.995 200.44C273.299 200.44 265.667 197.368 260.099 191.224C254.627 185.08 251.891 177.16 251.891 167.464C251.891 158.152 254.579 150.184 259.955 143.56C265.331 136.84 273.203 133.48 283.57 133.48C294.035 133.48 301.907 136.792 307.187 143.416C312.467 149.944 315.107 157.768 315.107 166.888ZM304.451 166.744C304.451 159.448 302.579 153.544 298.835 149.032C295.187 144.424 290.003 142.12 283.283 142.12C276.563 142.12 271.379 144.472 267.73 149.176C264.179 153.88 262.403 159.784 262.403 166.888C262.403 173.896 264.179 179.8 267.73 184.6C271.283 189.4 276.467 191.8 283.283 191.8C290.099 191.8 295.331 189.448 298.979 184.744C302.627 179.944 304.451 173.944 304.451 166.744ZM357.831 98.488C360.807 98.488 363.447 98.776 365.751 99.352C368.151 99.928 370.455 101.176 372.663 103.096L375.111 117.928L366.903 118.936L364.167 107.992C362.247 107.224 359.799 106.84 356.823 106.84C349.239 106.84 345.447 111.928 345.447 122.104V134.92H362.007V142.984H345.447V190.792H359.991V199H324.135V190.792H335.223V142.984H326.007V134.92H335.223V122.968C335.223 115.48 337.431 109.528 341.847 105.112C346.359 100.696 351.687 98.488 357.831 98.488ZM419.079 181.72C417.351 194.2 410.583 200.44 398.775 200.44C392.343 200.44 387.399 198.616 383.943 194.968C380.583 191.32 378.903 186.376 378.903 180.136V142.984H368.535V134.92H378.903V114.328H388.983V134.92H414.039V142.984H388.983V178.84C388.983 182.68 389.799 185.8 391.431 188.2C393.159 190.504 395.943 191.656 399.783 191.656C402.279 191.656 404.583 190.888 406.695 189.352C408.903 187.816 410.487 184.456 411.447 179.272L419.079 181.72ZM548.198 152.056C548.198 165.784 543.974 177.064 535.526 185.896C527.174 194.632 515.606 199 500.822 199H458.486V189.928H470.294V114.472H458.486V105.4H500.39C515.654 105.4 527.414 109.816 535.67 118.648C544.022 127.384 548.198 138.52 548.198 152.056ZM536.966 152.2C536.966 140.872 533.798 131.752 527.462 124.84C521.222 117.928 512.15 114.472 500.246 114.472H480.806V189.928H500.246C512.15 189.928 521.222 186.568 527.462 179.848C533.798 173.032 536.966 163.816 536.966 152.2ZM569.089 118.36V105.256H580.033V118.36H569.089ZM591.409 199H558.865V190.792H570.097V143.128H558.577V134.92H580.177V190.792H591.409V199ZM670.792 143.128H660.424V198.136C660.424 208.216 657.64 216.232 652.072 222.184C646.6 228.136 638.872 231.112 628.888 231.112C622.168 231.112 616.12 229.576 610.744 226.504C605.464 223.432 601.96 218.68 600.232 212.248L608.296 208.216C609.928 213.208 612.76 216.808 616.792 219.016C620.824 221.32 625 222.472 629.32 222.472C635.464 222.472 640.456 220.312 644.296 215.992C648.232 211.768 650.2 205.672 650.2 197.704V185.896C648.28 189.64 645.496 192.904 641.848 195.688C638.2 198.472 633.352 199.864 627.304 199.864C619.72 199.864 613.24 197.176 607.864 191.8C602.488 186.424 599.8 178.696 599.8 168.616C599.8 160.072 602.104 152.104 606.712 144.712C611.32 137.32 618.568 133.624 628.456 133.624C638.632 133.624 645.88 137.416 650.2 145V134.92H670.792V143.128ZM650.2 171.352V160.264C650.2 154.888 648.328 150.568 644.584 147.304C640.936 143.944 636.472 142.264 631.192 142.264C623.992 142.264 618.76 144.856 615.496 150.04C612.328 155.224 610.744 161.176 610.744 167.896C610.744 175.768 612.52 181.624 616.072 185.464C619.72 189.304 624.184 191.224 629.464 191.224C635.608 191.224 640.552 189.112 644.296 184.888C648.04 180.664 650.008 176.152 650.2 171.352ZM688.339 118.36V105.256H699.283V118.36H688.339ZM710.659 199H678.115V190.792H689.347V143.128H677.827V134.92H699.427V190.792H710.659V199ZM766.282 181.72C764.554 194.2 757.786 200.44 745.978 200.44C739.546 200.44 734.602 198.616 731.146 194.968C727.786 191.32 726.106 186.376 726.106 180.136V142.984H715.738V134.92H726.106V114.328H736.186V134.92H761.242V142.984H736.186V178.84C736.186 182.68 737.002 185.8 738.634 188.2C740.362 190.504 743.146 191.656 746.986 191.656C749.482 191.656 751.786 190.888 753.898 189.352C756.106 187.816 757.69 184.456 758.65 179.272L766.282 181.72ZM778.68 139.816C782.04 137.608 785.592 136.024 789.336 135.064C793.08 134.104 797.064 133.624 801.288 133.624C816.552 133.624 824.184 140.776 824.184 155.08V185.608C824.184 190.216 826.008 192.52 829.656 192.52C831.288 192.52 832.728 192.232 833.976 191.656L834.12 198.28C831.528 199.72 828.744 200.44 825.768 200.44C818.184 200.44 814.296 196.12 814.104 187.48V187.192C812.088 190.648 809.208 193.72 805.464 196.408C801.816 199.096 797.4 200.44 792.216 200.44C787.992 200.44 783.672 199.144 779.256 196.552C774.936 193.96 772.776 189.256 772.776 182.44C772.776 174.376 775.944 169.096 782.28 166.6C788.712 164.008 795.528 162.712 802.728 162.712C804.648 162.712 806.568 162.76 808.488 162.856C810.504 162.952 812.376 163.096 814.104 163.288V157.528C814.104 152.92 813.096 149.176 811.08 146.296C809.16 143.416 805.32 141.976 799.56 141.976C794.856 141.976 790.728 142.84 787.176 144.568L784.728 155.656L776.376 154.648L778.68 139.816ZM814.104 174.952V170.056C812.28 169.96 810.36 169.816 808.344 169.624C806.328 169.432 804.264 169.336 802.152 169.336C797.352 169.336 792.984 170.104 789.048 171.64C785.208 173.08 783.288 176.296 783.288 181.288C783.288 185.416 784.584 188.248 787.176 189.784C789.768 191.32 792.456 192.088 795.24 192.088C799.656 192.088 803.784 190.552 807.624 187.48C811.56 184.408 813.72 180.232 814.104 174.952ZM872.049 199H839.505V190.792H850.737V108.136H839.361V99.928H860.817V190.792H872.049V199Z" fill="white"/>
<path d="M78.217 151.581C78.5153 150.153 78.5323 148.701 78.2668 147.311C78.0013 145.921 77.4586 144.621 76.6706 143.486C73.7081 139.084 72.6919 133.537 73.8438 128.057C74.9959 122.577 78.2225 117.609 82.8185 114.239C84.5931 112.934 85.9865 111.159 86.8235 109.136C87.6606 107.113 87.9041 104.932 87.5233 102.868C87.1425 100.803 86.1545 98.9466 84.6834 97.5314C83.2123 96.1163 81.3237 95.2057 79.2548 94.9138C77.1857 94.622 75.0288 94.962 73.0545 95.891C71.0802 96.8203 69.3769 98.297 68.1584 100.136C66.9397 101.975 66.2603 104.095 66.2053 106.228C66.1502 108.361 66.7221 110.414 67.8491 112.127C69.3396 114.308 70.364 116.798 70.8637 119.457C71.3634 122.115 71.3285 124.888 70.7611 127.618C70.1936 130.348 69.1048 132.98 67.557 135.364C66.0093 137.748 64.0329 139.837 61.7413 141.511C60.2869 142.61 59.0938 144.032 58.2662 145.651C57.4386 147.27 57.0015 149.039 56.9927 150.802C56.9841 152.565 57.4042 154.269 58.2166 155.766C59.0289 157.263 60.2089 158.507 61.6534 159.39C63.0981 160.273 64.7636 160.768 66.5048 160.832C68.2461 160.896 70.01 160.527 71.6433 159.757C73.2766 158.987 74.7294 157.839 75.8751 156.415C77.0209 154.989 77.825 153.33 78.217 151.581Z" fill="#D24A5A"/>
<path d="M39.1537 99.7757C39.7865 101.783 41.0162 103.505 42.6852 104.722C44.3542 105.939 46.3863 106.595 48.5207 106.606C50.6553 106.616 52.7948 105.981 54.6646 104.782C56.5346 103.582 58.0498 101.874 59.0157 99.8744C60.2509 97.3284 61.9544 95.0143 64.0286 93.0647C66.1028 91.1151 68.5068 89.5683 71.1031 88.5132C73.6992 87.4581 76.4364 86.9152 79.1577 86.9156C81.879 86.9161 84.5307 87.4601 86.9611 88.5162C88.8538 89.3269 90.9869 89.5338 93.092 89.1114C95.1972 88.689 97.1805 87.6559 98.7922 86.1421C100.404 84.6284 101.572 82.7017 102.15 80.6045C102.727 78.5072 102.689 76.333 102.038 74.3557C101.388 72.3783 100.155 70.6861 98.4954 69.492C96.8354 68.2978 94.8223 67.6549 92.7093 67.6445C90.5963 67.6339 88.478 68.2563 86.6208 69.433C84.7637 70.6097 83.2507 72.2884 82.2722 74.2576C79.7652 79.3586 75.4289 83.4072 70.2127 85.5172C64.9964 87.6272 59.325 87.6268 54.4396 85.5161C52.5398 84.6509 50.3802 84.403 48.2404 84.8048C46.1005 85.2066 44.0789 86.2394 42.4376 87.7695C40.7962 89.2999 39.6104 91.257 39.0339 93.3876C38.4573 95.5183 38.5165 97.7243 39.2037 99.72L39.1537 99.7757Z" fill="#559FE3"/>
<path d="M60.2083 116.218C59.1487 115.337 57.9082 114.693 56.5594 114.323C55.2105 113.953 53.7806 113.865 52.353 114.064C46.8807 114.762 41.5275 113.262 37.4641 109.891C33.4005 106.52 30.9573 101.553 30.6684 96.0753C30.6031 94.6496 30.2555 93.2738 29.6459 92.0277C29.0364 90.7818 28.1768 89.6905 27.1173 88.8172C25.8034 87.7534 24.2249 87.0516 22.5197 86.7734C20.8145 86.495 19.0345 86.6487 17.335 87.2207C15.6353 87.7927 14.0679 88.7659 12.7693 90.0551C11.4708 91.3445 10.4806 92.9106 9.88535 94.6172C9.29016 96.3236 9.10771 98.1184 9.3542 99.8451C9.60068 101.572 10.2686 103.177 11.2995 104.522C12.3304 105.867 13.6931 106.91 15.2685 107.56C16.844 108.211 18.5842 108.448 20.3376 108.252C23.0648 107.888 25.794 108.065 28.3691 108.775C30.9442 109.484 33.3146 110.712 35.3442 112.388C37.3739 114.063 39.0233 116.153 40.1977 118.539C41.372 120.924 42.0483 123.558 42.1879 126.289C42.3013 128.042 42.8425 129.706 43.764 131.136C44.6855 132.565 45.9592 133.717 47.4738 134.49C48.9884 135.263 50.6975 135.634 52.452 135.57C54.2065 135.506 55.9528 135.009 57.5382 134.123C59.1234 133.237 60.4993 131.989 61.5458 130.488C62.5921 128.986 63.2769 127.278 63.5404 125.511C63.8038 123.744 63.6379 121.974 63.057 120.354C62.4761 118.734 61.4981 117.314 60.2083 116.218Z" fill="#924FD5"/>
<path d="M123.602 82.3908C125.052 82.551 126.498 82.4289 127.857 82.0314C129.215 81.6341 130.457 80.9692 131.512 80.0762C135.609 76.7058 141.033 75.163 146.599 75.7847C152.164 76.4066 157.419 79.1427 161.213 83.3948C162.682 85.0363 164.582 86.2533 166.676 86.8927C168.77 87.5322 170.964 87.5657 172.982 86.989C175.001 86.4121 176.754 85.2509 178.022 83.651C179.29 82.0511 180.016 80.084 180.108 77.9966C180.2 75.9091 179.655 73.7947 178.541 71.9185C177.427 70.0423 175.794 68.4882 173.847 67.4514C171.9 66.4145 169.725 65.9411 167.596 66.0907C165.467 66.2402 163.479 67.006 161.882 68.292C159.854 69.9844 157.473 71.2427 154.874 71.9946C152.276 72.7467 149.512 72.9775 146.74 72.6742C143.969 72.3708 141.244 71.539 138.723 70.2267C136.202 68.9144 133.934 67.1471 132.048 65.0263C130.814 63.6839 129.285 62.6325 127.594 61.9638C125.903 61.295 124.101 61.0293 122.345 61.1895C120.589 61.3497 118.933 61.9311 117.521 62.8831C116.109 63.8351 114.983 65.1287 114.243 66.6512C113.502 68.1738 113.169 69.8791 113.272 71.6184C113.375 73.3578 113.911 75.0783 114.834 76.6303C115.757 78.1823 117.038 79.5186 118.566 80.5226C120.095 81.5266 121.823 82.1681 123.602 82.3908Z" fill="#D24A5A"/>
<path d="M171.428 38.5455C169.491 39.3677 167.894 40.7567 166.842 42.5345C165.791 44.3125 165.333 46.3979 165.526 48.5236C165.72 50.6494 166.557 52.7182 167.93 54.4646C169.303 56.2111 171.149 57.5556 173.232 58.3257C175.884 59.3114 178.351 60.7854 180.49 62.6634C182.63 64.5414 184.4 66.7862 185.698 69.2694C186.997 71.7525 187.8 74.4251 188.06 77.134C188.32 79.8428 188.033 82.5345 187.214 85.0549C186.589 87.0164 186.587 89.1595 187.209 91.2146C187.831 93.2697 189.049 95.1448 190.71 96.6041C192.372 98.0636 194.401 99.0419 196.544 99.4159C198.687 99.79 200.848 99.5432 202.754 98.7065C204.66 97.8698 206.226 96.4808 207.256 94.7141C208.285 92.9474 208.732 90.8819 208.54 88.7776C208.349 86.6734 207.526 84.6244 206.177 82.8885C204.828 81.1526 203.012 79.8073 200.958 79.0219C195.641 77.015 191.195 73.0863 188.595 68.0962C185.996 63.1059 185.453 57.4606 187.086 52.3955C187.765 50.4216 187.805 48.2482 187.2 46.1566C186.595 44.0651 185.374 42.1517 183.693 40.6644C182.013 39.1772 179.951 38.1843 177.775 37.8145C175.599 37.4446 173.409 37.7148 171.488 38.59L171.428 38.5455Z" fill="#559FE3"/>
<path d="M157.077 61.0781C157.853 59.939 158.375 58.6425 158.614 57.2644C158.853 55.8863 158.804 54.4546 158.469 53.0526C157.25 47.6723 158.231 42.2001 161.197 37.8324C164.163 33.4647 168.874 30.557 174.299 29.7448C175.711 29.5433 177.048 29.0656 178.23 28.3394C179.411 27.6133 180.415 26.6532 181.183 25.515C182.116 24.1052 182.664 22.4667 182.777 20.7428C182.891 19.0187 182.568 17.2616 181.836 15.6247C181.103 13.9876 179.984 12.5206 178.577 11.3515C177.169 10.1824 175.515 9.34679 173.76 8.91768C172.004 8.48865 170.2 8.47894 168.505 8.88965C166.81 9.30037 165.275 10.119 164.035 11.2739C162.796 12.4289 161.888 13.8852 161.391 15.5157C160.895 17.1462 160.825 18.9012 161.188 20.6277C161.812 23.3075 161.897 26.0412 161.437 28.6723C160.977 31.3036 159.983 33.7806 158.509 35.9615C157.036 38.1423 155.113 39.9843 152.851 41.3817C150.589 42.7791 148.032 43.7046 145.327 44.1051C143.593 44.3858 141.988 45.0839 140.653 46.1381C139.319 47.1923 138.294 48.5704 137.67 50.152C137.046 51.7337 136.84 53.4705 137.072 55.2108C137.304 56.9511 137.965 58.6418 138.999 60.135C140.033 61.6281 141.407 62.8782 143.002 63.7761C144.596 64.6738 146.363 65.1918 148.146 65.2848C149.93 65.3779 151.677 65.0431 153.234 64.3098C154.79 63.5764 156.11 62.4669 157.077 61.0781Z" fill="#924FD5"/>
<path d="M152.592 210.01C151.141 209.433 149.603 209.15 148.066 209.177C146.53 209.204 145.027 209.541 143.645 210.168C138.307 212.502 132.186 212.565 126.62 210.343C121.054 208.122 116.496 203.796 113.941 198.312C112.951 196.194 111.376 194.393 109.413 193.137C107.45 191.881 105.187 191.224 102.909 191.25C100.63 191.276 98.4368 191.984 96.6047 193.283C94.7727 194.583 93.3836 196.417 92.6116 198.555C91.8397 200.694 91.7195 203.04 92.2661 205.301C92.8128 207.562 94.0017 209.637 95.6839 211.263C97.3659 212.89 99.4663 213.997 101.721 214.445C103.975 214.894 106.284 214.663 108.356 213.782C111.005 212.602 113.881 211.972 116.817 211.928C119.753 211.885 122.692 212.429 125.466 213.529C128.24 214.628 130.794 216.263 132.981 218.338C135.169 220.413 136.947 222.888 138.214 225.621C139.058 227.363 140.302 228.886 141.838 230.059C143.374 231.232 145.155 232.018 147.027 232.349C148.898 232.68 150.803 232.547 152.574 231.96C154.346 231.373 155.932 230.351 157.192 228.982C158.453 227.613 159.351 225.939 159.808 224.107C160.264 222.274 160.266 220.338 159.812 218.467C159.358 216.596 158.464 214.848 157.205 213.374C155.947 211.9 154.363 210.745 152.592 210.01Z" fill="#D24A5A"/>
<path d="M88.8269 241.921C91.1008 241.617 93.2055 240.629 94.871 239.084C96.5367 237.538 97.687 235.506 98.1748 233.247C98.6625 230.988 98.4652 228.605 97.6082 226.406C96.7513 224.206 95.2737 222.288 93.3651 220.9C90.9355 219.126 88.8569 216.899 87.2483 214.346C85.6398 211.792 84.5328 208.963 83.9912 206.02C83.4495 203.078 83.4836 200.079 84.0915 197.196C84.6994 194.314 85.8694 191.605 87.534 189.223C88.8178 187.367 89.5138 185.145 89.5349 182.838C89.5559 180.531 88.9009 178.241 87.6522 176.257C86.4035 174.273 84.617 172.684 82.5175 171.689C80.4179 170.694 78.0991 170.338 75.853 170.665C73.6067 170.993 71.5335 171.989 69.8942 173.529C68.2547 175.069 67.1224 177.084 66.6396 179.32C66.1568 181.557 66.3452 183.914 67.181 186.096C68.0169 188.279 69.4628 190.188 71.3368 191.584C76.1973 195.172 79.5312 200.505 80.609 206.416C81.6866 212.327 80.4203 218.334 77.0872 223.123C75.7438 224.978 74.9983 227.22 74.9476 229.56C74.8969 231.9 75.5431 234.23 76.8026 236.248C78.0623 238.267 79.8772 239.88 82.0124 240.88C84.1478 241.88 86.5049 242.221 88.7789 241.858L88.8269 241.921Z" fill="#559FE3"/>
<path d="M110.998 222.623C109.825 223.585 108.864 224.781 108.169 226.142C107.475 227.503 107.062 229.002 106.955 230.55C106.476 236.475 103.687 241.871 99.1979 245.559C94.7092 249.247 88.8857 250.928 83.001 250.233C81.4715 250.041 79.9321 250.158 78.472 250.576C77.012 250.994 75.6606 251.705 74.4963 252.668C73.0726 253.865 71.9746 255.409 71.2983 257.164C70.6219 258.92 70.3879 260.833 70.6163 262.738C70.8448 264.643 71.529 266.481 72.609 268.092C73.6892 269.703 75.1323 271.038 76.8127 271.981C78.4931 272.923 80.3594 273.444 82.2491 273.499C84.1387 273.553 85.9939 273.139 87.653 272.293C89.3121 271.446 90.7247 270.194 91.7672 268.644C92.8099 267.094 93.4508 265.294 93.634 263.401C93.8552 260.445 94.653 257.587 95.9817 254.989C97.3105 252.391 99.144 250.104 101.377 248.261C103.611 246.417 106.2 245.052 108.997 244.244C111.794 243.436 114.743 243.201 117.676 243.552C119.564 243.752 121.453 243.483 123.178 242.768C124.903 242.053 126.41 240.914 127.57 239.451C128.729 237.988 129.505 236.246 129.828 234.375C130.152 232.505 130.014 230.565 129.427 228.724C128.839 226.883 127.82 225.197 126.458 223.814C125.096 222.432 123.434 221.394 121.615 220.792C119.797 220.19 117.879 220.042 116.028 220.362C114.177 220.681 112.45 221.457 110.998 222.623Z" fill="#924FD5"/>
<line x1="165" y1="223.5" x2="591" y2="223.5" stroke="white" stroke-width="7"/>
<line x1="668" y1="223.5" x2="881" y2="223.5" stroke="white" stroke-width="7"/>
</svg>
